<svg xmlns="http://www.w3.org/2000/svg" viewBox="0 0 240 60" width="240" height="60" role="img" aria-labelledby="logo-title logo-desc">
  <title id="logo-title">Ahmed Work Logo - Radiant Bloom Horizontal</title>
  <desc id="logo-desc">Radiant Bloom icon with ahmed.work wordmark</desc>
  <defs>
    <linearGradient id="sunGradient" x1="0%" y1="0%" x2="100%" y2="100%">
      <stop offset="0%" style="stop-color:#E8955A;stop-opacity:1" />
      <stop offset="100%" style="stop-color:#F5D88C;stop-opacity:1" />
    </linearGradient>
  </defs>
  <g id="icon" transform="translate(0, 5) scale(0.5)">
    <g id="rays">
      <path d="M50 8 Q52 25 50 30 Q48 25 50 8" fill="url(#sunGradient)" opacity="0.9" />
      <path d="M50 92 Q48 75 50 70 Q52 75 50 92" fill="url(#sunGradient)" opacity="0.9" />
      <path d="M8 50 Q25 48 30 50 Q25 52 8 50" fill="url(#sunGradient)" opacity="0.9" />
      <path d="M92 50 Q75 52 70 50 Q75 48 92 50" fill="url(#sunGradient)" opacity="0.9" />
      <path d="M18 18 Q30 28 35 35 Q28 30 18 18" fill="url(#sunGradient)" opacity="0.8" />
      <path d="M82 82 Q70 72 65 65 Q72 70 82 82" fill="url(#sunGradient)" opacity="0.8" />
      <path d="M82 18 Q72 30 65 35 Q70 28 82 18" fill="url(#sunGradient)" opacity="0.8" />
      <path d="M18 82 Q28 70 35 65 Q30 72 18 82" fill="url(#sunGradient)" opacity="0.8" />
    </g>
    <circle cx="50" cy="50" r="20" fill="url(#sunGradient)" />
    <circle cx="50" cy="50" r="14" fill="#F5D88C" opacity="0.6" />
  </g>
  <g id="wordmark">
    <text x="65" y="40" font-family="Georgia, serif" font-size="28" font-weight="700" font-style="italic" fill="#E8955A">ahmed</text>
    <text x="148" y="40" font-family="Georgia, serif" font-size="28" font-weight="700" fill="#4D3D35" opacity="0.8">.work</text>
  </g>
</svg>